<?xml version="1.0" encoding="UTF-8"?>
<svg xmlns="http://www.w3.org/2000/svg" viewBox="0.0 0.0 2635.9 1200.0" role="img" aria-label="spark">
  <rect x="0" y="0" width="2635.9220451797055" height="1200.0" fill="#FFFFFF"/>
  <g transform="translate(100.00 100.00) scale(1.46028)">
    <path d="M227 211C209.3 179 208.3 178.3 205 175C201.7 171.7 197.8 167.8 193 165C188.2 162.2 181.7 159.2 176 158C170.3 156.8 164.5 156.7 159 158C153.5 159.3 147 163 143 166C139 169 136.8 173 135 176C133.2 179 133 174.5 132 184C131 193.5 130.5 221.3 129 233C127.5 244.7 125.3 247.7 123 254C120.7 260.3 121.7 260.5 115 271C108.3 281.5 94.5 302.7 83 317C71.5 331.3 55.5 345 46 357C36.5 369 30.7 380.2 26 389C21.3 397.8 20.3 401.5 18 410C15.7 418.5 13 429.2 12 440C11 450.8 11.2 464.3 12 475C12.8 485.7 11.7 486.7 17 504C22.3 521.3 37.3 555.7 44 579C50.7 602.3 53 630.2 57 644C61 657.8 64.5 657.3 68 662C71.5 666.7 73.2 668.3 78 672C82.8 675.7 90.3 680.8 97 684C103.7 687.2 110.8 689.3 118 691C125.2 692.7 123.5 693.5 140 694C156.5 694.5 201.5 694.3 217 694C232.5 693.7 227 693.3 233 692C239 690.7 245.7 689.5 253 686C260.3 682.5 263.7 682.8 277 671C290.3 659.2 320.2 628.7 333 615C345.8 601.3 347.3 599 354 589C360.7 579 368.7 564.2 373 555C377.3 545.8 378.3 541 380 534C381.7 527 380.7 518.7 383 513C385.3 507.3 391.2 504.5 394 500C396.8 495.5 398.8 492 400 486C401.2 480 401.2 469 401 464C400.8 459 400.2 459 399 456C397.8 453 396.3 449.3 394 446C391.7 442.7 390 439.3 385 436C380 432.7 367.5 427.7 364 426L364 426C366.2 411 366 406.3 365 402C364 397.7 361.8 392.5 360 389C358.2 385.5 356.2 383.3 354 381C351.8 378.7 350.5 377 347 375C343.5 373 338.5 370.2 333 369C327.5 367.8 317.2 368.2 314 368L314 368C313.5 347.5 313.7 345.5 311 341C308.3 336.5 302.2 328.7 298 325C293.8 321.3 291.5 320.2 286 319C280.5 317.8 268.5 318.2 265 318L265 318C360.3 216.8 354.5 220 357 215C359.5 210 359.8 209.8 360 204C360.2 198.2 359.7 186.3 358 180C356.3 173.7 354 170.3 350 166C346 161.7 338.2 156.5 334 154C329.8 151.5 328.8 151.7 325 151C321.2 150.3 317.3 148.8 311 150C304.7 151.2 293.7 154.7 287 158C280.3 161.3 281 161.2 271 170C261 178.8 234.3 204.2 227 211L227 211Z M373 456C379 468 379.2 471 379 474C378.8 477 378.5 479.8 377 483C375.5 486.2 382 484.8 370 493C358 501.2 318.2 525.3 305 532C291.8 538.7 295.2 534 291 533C286.8 532 282.5 528.3 280 526C277.5 523.7 276.8 521.7 276 519C275.2 516.3 274.7 512.8 275 510C275.3 507.2 276.3 504.5 278 502C279.7 499.5 273 503.8 285 495C297 486.2 337.5 456.8 350 449C362.5 441.2 356.2 446.8 360 448C363.8 449.2 370.8 454.7 373 456L373 456Z M214 431C191.8 408.5 180.5 400.7 177 398L177 398C185 384.2 178.2 389.5 189 381C199.8 372.5 237.2 343.8 248 336C258.8 328.2 250.5 334.3 254 334C257.5 333.7 264.3 333 269 334C273.7 335 278.3 336.7 282 340C285.7 343.3 289.5 349.8 291 354C292.5 358.2 291.8 361.3 291 365C290.2 368.7 298.8 365 286 376C273.2 387 226 421.8 214 431L214 431Z M225 451C320.5 380.7 308 389 312 389C316 389 325.3 389.2 330 391C334.7 392.8 337.8 397.3 340 400C342.2 402.7 342.7 403.5 343 407C343.3 410.5 343.5 416.8 342 421C340.5 425.2 347.5 421 334 432C320.5 443 274.2 476 261 487C247.8 498 256.3 493.2 255 498C253.7 502.8 252.8 511 253 516C253.2 521 254.7 524.5 256 528C257.3 531.5 258.7 534 261 537C263.3 540 266.2 543.3 270 546C273.8 548.7 278.5 551.7 284 553C289.5 554.3 298 554.3 303 554C308 553.7 305.7 555.2 314 551C322.3 546.8 346.5 532.7 353 529L353 529C353.3 534.7 352.3 538.3 349 545C345.7 551.7 338.7 564.7 334 572C329.3 579.3 331.8 577 321 589C310.2 601 281.5 631.8 269 644C256.5 656.2 253.8 657.8 246 662C238.2 666.2 239.2 667.7 222 669C204.8 670.3 158.8 670.2 143 670C127.2 669.8 133.7 669.8 127 668C120.3 666.2 109.8 663 103 659C96.2 655 90.2 649.3 86 644C81.8 638.7 80.8 638.7 78 627C75.2 615.3 74.5 593.8 69 574C63.5 554.2 50.2 524.5 45 508C39.8 491.5 39.2 486.2 38 475C36.8 463.8 37.5 449.3 38 441C38.5 432.7 39.3 431.2 41 425C42.7 418.8 45.5 410.2 48 404C50.5 397.8 52 394.3 56 388C60 381.7 63.8 375.7 72 366C80.2 356.3 95.3 342.3 105 330C114.7 317.7 119.2 301.7 130 292C140.8 282.3 162.3 276.5 170 272C177.7 267.5 175 267.5 176 265C177 262.5 177.2 259.5 176 257C174.8 254.5 171.3 251.2 169 250C166.7 248.8 165.5 249 162 250C158.5 251 150.3 255 148 256L148 256C156.5 215.8 155.5 196.3 157 189C158.5 181.7 161.7 184 164 183C166.3 182 168.3 182.3 171 183C173.7 183.7 176 183.5 180 187C184 190.5 190.7 196.5 195 204C199.3 211.5 203.7 224.2 206 232C208.3 239.8 208.5 244.7 209 251C209.5 257.3 209.7 262.7 209 270C208.3 277.3 207.2 286.5 205 295C202.8 303.5 199.8 312.3 196 321C192.2 329.7 189.2 335.8 182 347C174.8 358.2 158.7 379.3 153 388C147.3 396.7 148.8 395.8 148 399C147.2 402.2 147.3 404.8 148 407C148.7 409.2 149 410 152 412C155 414 161.3 416 166 419C170.7 422 174.3 424 180 430C185.7 436 195.3 448.2 200 455C204.7 461.8 205.3 463 208 471C210.7 479 215 491.3 216 503C217 514.7 213.5 533.3 214 541C214.5 548.7 216.8 547.3 219 549C221.2 550.7 224.3 551.3 227 551C229.7 550.7 233.2 548.8 235 547C236.8 545.2 237.2 544.5 238 540C238.8 535.5 240.2 529.2 240 520C239.8 510.8 239.5 496.5 237 485C234.5 473.5 227 456.7 225 451L225 451Z M326 179C333.5 187.3 334.7 189.8 335 193C335.3 196.2 335.2 200.2 334 204C332.8 207.8 347.2 195 328 216C308.8 237 237.3 311.3 219 330C200.7 348.7 216.3 332.8 218 328C219.7 323.2 226.5 308.7 229 301C231.5 293.3 232.3 292.7 233 282C233.7 271.3 222.7 253.7 233 237C243.3 220.3 282.5 192.2 295 182C307.5 171.8 303.8 177 308 176C312.2 175 317 175.5 320 176C323 176.5 325 178.5 326 179L326 179Z M233 12C224.3 24.8 224.8 39.3 223 47C221.2 54.7 217.7 60.7 215 65C212.3 69.3 209.8 70.8 207 73C204.2 75.2 201.8 76.5 198 78C194.2 79.5 189.5 81 184 82C178.5 83 169 82.8 165 84C161 85.2 161 87 160 89C159 91 158.2 93.5 159 96C159.8 98.5 159.5 102.2 165 104C170.5 105.8 185 105.3 192 107C199 108.7 203.2 111.5 207 114C210.8 116.5 212.8 119.2 215 122C217.2 124.8 218.5 127 220 131C221.5 135 223 140.2 224 146C225 151.8 224.8 161.8 226 166C227.2 170.2 229 170 231 171C233 172 236 172.2 238 172C240 171.8 241.5 171.2 243 170C244.5 168.8 245.8 170 247 165C248.2 160 248.8 146 250 140C251.2 134 252.2 132.5 254 129C255.8 125.5 256.8 122.5 261 119C265.2 115.5 270.8 110.7 279 108C287.2 105.3 304.2 104.7 310 103C315.8 101.3 313.3 100.2 314 98C314.7 95.8 315.3 92.5 314 90C312.7 87.5 311.5 84.7 306 83C300.5 81.3 287.8 81.8 281 80C274.2 78.2 268.8 74.7 265 72C261.2 69.3 260.2 67.7 258 64C255.8 60.3 253.8 58 252 50C250.2 42 248.7 22.3 247 16C245.3 9.7 244.3 12.7 242 12C239.7 11.3 234.5 12 233 12L233 12Z M237 68C250 86.2 258.5 91.2 261 93L261 93C241 110.3 238.3 116.8 237 119L237 119C228.2 105.5 223 100.5 220 98C217 95.5 214.2 94.7 213 94L213 94C235 73.7 236 69.7 237 68L237 68Z" fill="#0F1115" fill-rule="evenodd"/>
  </g>
  <g transform="translate(937.19 753.14) scale(0.62000)">
    <path d="M212.60028076171875 -529.800048828125Q253.40032958984375 -529.800048828125 282.5003967285156 -517.5000915527344Q311.6004638671875 -505.20013427734375 325.00048828125 -494.8001708984375Q358.4005126953125 -469.000244140625 365.60052490234375 -528.800048828125H388.00048828125Q386.00048828125 -500.60003662109375 385.00048828125 -461.5Q384.00048828125 -422.39996337890625 384.00048828125 -356.7999267578125H361.60052490234375Q356.00054931640625 -393.7999267578125 341.7005615234375 -428.99993896484375Q327.40057373046875 -464.199951171875 299.9006042480469 -486.9999694824219Q272.400634765625 -509.79998779296875 228.20068359375 -509.79998779296875Q195.2008056640625 -509.79998779296875 173.00088500976562 -491.2000427246094Q150.80096435546875 -472.60009765625 150.80096435546875 -437.000244140625Q150.80096435546875 -407.000244140625 168.80096435546875 -385.1002197265625Q186.80096435546875 -363.2001953125 215.6009521484375 -344.10015869140625Q244.40093994140625 -325.0001220703125 277.20086669921875 -302.60009765625Q313.80078125 -278.40008544921875 343.40069580078125 -253.60009765625Q373.0006103515625 -228.80010986328125 390.7005615234375 -199.10012817382812Q408.4005126953125 -169.400146484375 408.4005126953125 -128.8001708984375Q408.4005126953125 -83.00018310546875 383.7004699707031 -51.20013427734375Q359.00042724609375 -19.40008544921875 319.100341796875 -2.700042724609375Q279.20025634765625 14.0 231.20013427734375 14.0Q206.5999755859375 14.0 185.79989624023438 9.699951171875Q164.99981689453125 5.39990234375 147.39984130859375 -2.20013427734375Q136.19976806640625 -7.8001708984375 125.499755859375 -14.300140380859375Q114.79974365234375 -20.80010986328125 104.5997314453125 -27.20001220703125Q94.5997314453125 -33.59991455078125 86.79974365234375 -24.69989013671875Q78.999755859375 -15.79986572265625 74.999755859375 7.0H52.59979248046875Q54.59979248046875 -25.0 55.59979248046875 -71.0Q56.59979248046875 -117.0 56.59979248046875 -193.0H78.999755859375Q85.79974365234375 -137.60003662109375 99.69979858398438 -95.800048828125Q113.599853515625 -54.00006103515625 141.49984741210938 -30.50006103515625Q169.39984130859375 -7.00006103515625 216.59967041015625 -7.00006103515625Q235.79962158203125 -7.00006103515625 254.79953002929688 -15.4000244140625Q273.7994384765625 -23.79998779296875 286.599365234375 -42.9998779296875Q299.3992919921875 -62.19976806640625 299.3992919921875 -93.99957275390625Q299.3992919921875 -137.99957275390625 268.4993591308594 -166.39959716796875Q237.59942626953125 -194.79962158203125 190.3995361328125 -226.7996826171875Q155.599609375 -250.79974365234375 125.09967041015625 -274.4997863769531Q94.5997314453125 -298.1998291015625 75.59976196289062 -327.6998596191406Q56.59979248046875 -357.19989013671875 56.59979248046875 -397.79986572265625Q56.59979248046875 -442.79986572265625 78.29986572265625 -471.9999084472656Q99.99993896484375 -501.199951171875 135.800048828125 -515.5Q171.60015869140625 -529.800048828125 212.60028076171875 -529.800048828125Z M665.2008056640625 -526.6000366210938V85.9998779296875Q665.2008056640625 130.199951171875 690.2007751464844 145.0999755859375Q715.2007446289062 160.0 759.20068359375 160.0V181.0Q736.0006103515625 180.0 694.8004760742188 178.5Q653.600341796875 177.0 607.2001953125 177.0Q574.4000854492188 177.0 542.1999816894531 178.5Q509.9998779296875 180.0 493.1998291015625 181.0V160.0Q528.1997680664062 160.0 542.6997375488281 146.5999755859375Q557.19970703125 133.199951171875 557.19970703125 95.9998779296875V-406.60003662109375Q557.19970703125 -451.60003662109375 541.999755859375 -473.10003662109375Q526.7998046875 -494.60003662109375 485.199951171875 -494.60003662109375V-515.6000366210938Q517.199951171875 -512.6000366210938 547.199951171875 -512.6000366210938Q580.4002075195312 -512.6000366210938 610.3004150390625 -516.1000366210938Q640.2006225585938 -519.6000366210938 665.2008056640625 -526.6000366210938ZM823.6007080078125 -529.800048828125Q876.0006713867188 -529.800048828125 917.400634765625 -501.50006103515625Q958.8005981445312 -473.2000732421875 983.0005798339844 -418.1000671386719Q1007.2005615234375 -363.00006103515625 1007.2005615234375 -281.20001220703125Q1007.2005615234375 -220.9996337890625 993.1004943847656 -167.59957885742188Q979.0004272460938 -114.19952392578125 950.5003662109375 -73.39962768554688Q922.0003051757812 -32.5997314453125 878.8003234863281 -9.29986572265625Q835.600341796875 14.0 777.4005126953125 14.0Q733.0006713867188 14.0 699.3007202148438 -5.099822998046875Q665.6007690429688 -24.19964599609375 652.0006713867188 -53.19952392578125L662.0006713867188 -66.99951171875Q674.8005981445312 -42.39971923828125 698.6004333496094 -26.39990234375Q722.4002685546875 -10.40008544921875 756.9999389648438 -10.40008544921875Q809.19970703125 -10.40008544921875 838.599609375 -43.79998779296875Q867.99951171875 -77.19989013671875 880.0994873046875 -134.79983520507812Q892.199462890625 -192.3997802734375 892.199462890625 -265.39990234375Q892.199462890625 -347.20001220703125 879.99951171875 -397.5999755859375Q867.799560546875 -447.99993896484375 843.9996948242188 -471.6998596191406Q820.1998291015625 -495.3997802734375 786.0000610351562 -495.3997802734375Q741.2003173828125 -495.3997802734375 704.800537109375 -459.0000305175781Q668.4007568359375 -422.60028076171875 659.6008911132812 -350.60089111328125L650.0010375976562 -371.601318359375Q663.4011840820312 -447.20074462890625 710.8010559082031 -488.5003967285156Q758.200927734375 -529.800048828125 823.6007080078125 -529.800048828125Z M1230.9998168945312 7.0Q1188.7997436523438 7.0 1158.7997436523438 -9.000030517578125Q1128.7997436523438 -25.00006103515625 1113.6997680664062 -53.2000732421875Q1098.5997924804688 -81.40008544921875 1098.5997924804688 -117.4000244140625Q1098.5997924804688 -161.0 1118.7997741699219 -188.69998168945312Q1138.999755859375 -216.39996337890625 1170.6997375488281 -233.29995727539062Q1202.3997192382812 -250.199951171875 1237.5997009277344 -261.5999450683594Q1272.7996826171875 -272.99993896484375 1304.4996643066406 -283.49993896484375Q1336.1996459960938 -293.99993896484375 1356.3996276855469 -308.0999450683594Q1376.599609375 -322.199951171875 1376.599609375 -345.199951171875V-412.60028076171875Q1376.599609375 -449.39996337890625 1365.4996948242188 -470.7999267578125Q1354.3997802734375 -492.19989013671875 1334.599853515625 -500.9999694824219Q1314.7999267578125 -509.800048828125 1287.9998779296875 -509.800048828125Q1264.7999877929688 -509.800048828125 1239.1001586914062 -503.3000793457031Q1213.4003295898438 -496.80010986328125 1197.6004028320312 -477.60028076171875Q1219.8005981445312 -471.8001708984375 1234.2006225585938 -454.3000793457031Q1248.6006469726562 -436.79998779296875 1248.6006469726562 -411.199951171875Q1248.6006469726562 -383.19976806640625 1230.2005004882812 -366.9996643066406Q1211.8003540039062 -350.799560546875 1184.2001953125 -350.799560546875Q1153.0000610351562 -350.799560546875 1137.7999572753906 -370.5996398925781Q1122.599853515625 -390.39971923828125 1122.599853515625 -416.19989013671875Q1122.599853515625 -443.199951171875 1136.0998840332031 -460.3000183105469Q1149.5999145507812 -477.40008544921875 1171.800048828125 -492.20013427734375Q1196.2001342773438 -508.400146484375 1233.8002014160156 -519.10009765625Q1271.4002685546875 -529.800048828125 1317.4002685546875 -529.800048828125Q1360.0003662109375 -529.800048828125 1391.6005249023438 -520.300048828125Q1423.20068359375 -510.800048828125 1444.4008178710938 -490.19989013671875Q1469.4007568359375 -466.59991455078125 1477.000732421875 -432.3999328613281Q1484.6007080078125 -398.199951171875 1484.6007080078125 -349.39990234375V-73.4000244140625Q1484.6007080078125 -48.4000244140625 1491.3006591796875 -37.800048828125Q1498.0006103515625 -27.2000732421875 1512.6005249023438 -27.2000732421875Q1523.00048828125 -27.2000732421875 1532.5004577636719 -32.2000732421875Q1542.0004272460938 -37.2000732421875 1554.600341796875 -47.0L1565.4003295898438 -30.0Q1544.2003173828125 -13.39996337890625 1522.5001525878906 -3.199981689453125Q1500.7999877929688 7.0 1467.9999389648438 7.0Q1436.1997680664062 7.0 1416.2997131347656 -3.100006103515625Q1396.399658203125 -13.20001220703125 1386.899658203125 -32.29998779296875Q1377.399658203125 -51.39996337890625 1377.1996459960938 -79.39984130859375Q1351.3997192382812 -36.79998779296875 1315.0997924804688 -14.899993896484375Q1278.7998657226562 7.0 1230.9998168945312 7.0ZM1278.800537109375 -41.00048828125Q1307.4002685546875 -41.00048828125 1331.9000244140625 -56.900299072265625Q1356.3997802734375 -72.80010986328125 1376.599609375 -105.19976806640625V-304.199951171875Q1365.5996704101562 -288.0 1344.8998107910156 -276.29998779296875Q1324.199951171875 -264.5999755859375 1300.2001342773438 -252.79995727539062Q1276.2003173828125 -240.99993896484375 1254.50048828125 -225.59994506835938Q1232.8006591796875 -210.199951171875 1218.7007751464844 -186.30001831054688Q1204.6008911132812 -162.40008544921875 1204.6008911132812 -125.20025634765625Q1204.6008911132812 -85.60028076171875 1224.7008056640625 -63.300384521484375Q1244.8007202148438 -41.00048828125 1278.800537109375 -41.00048828125Z M1929.2005615234375 -529.800048828125Q1958.0006713867188 -529.800048828125 1978.4006652832031 -517.8999938964844Q1998.8006591796875 -505.99993896484375 2009.6006164550781 -487.29986572265625Q2020.4005737304688 -468.59979248046875 2020.4005737304688 -446.3997802734375Q2020.4005737304688 -417.3995361328125 2002.9004516601562 -396.8994445800781Q1985.4003295898438 -376.39935302734375 1956.400146484375 -376.39935302734375Q1930.7998657226562 -376.39935302734375 1913.4997863769531 -391.1994323730469Q1896.19970703125 -405.99951171875 1896.19970703125 -432.39959716796875Q1896.19970703125 -454.3997802734375 1907.499755859375 -469.5998840332031Q1918.7998046875 -484.79998779296875 1933.5999145507812 -494.2000732421875Q1924.3997802734375 -502.199951171875 1910.3997802734375 -500.79986572265625Q1883.2000122070312 -499.7998046875 1860.2001953125 -483.1999206542969Q1837.2003784179688 -466.60003662109375 1821.2005004882812 -441.1002502441406Q1805.2006225585938 -415.6004638671875 1796.3006896972656 -386.8006896972656Q1787.4007568359375 -358.00091552734375 1787.4007568359375 -332.60107421875V-103.0Q1787.4007568359375 -54.20001220703125 1814.2006530761719 -37.600006103515625Q1841.0005493164062 -21.0 1889.4005126953125 -21.0V0.0Q1866.4005126953125 -1.0 1823.7004699707031 -2.5Q1781.0004272460938 -4.0 1733.8004150390625 -4.0Q1697.6002807617188 -4.0 1661.6001281738281 -2.5Q1625.5999755859375 -1.0 1607.39990234375 0.0V-21.0Q1646.3997802734375 -21.0 1662.8997192382812 -36.0Q1679.399658203125 -51.0 1679.399658203125 -93.0V-406.800048828125Q1679.399658203125 -451.800048828125 1664.19970703125 -473.300048828125Q1648.999755859375 -494.800048828125 1607.39990234375 -494.800048828125V-515.800048828125Q1639.39990234375 -512.800048828125 1669.39990234375 -512.800048828125Q1702.6001586914062 -512.800048828125 1732.5003662109375 -516.300048828125Q1762.4005737304688 -519.800048828125 1787.4007568359375 -526.800048828125V-412.40069580078125Q1798.80078125 -440.8006591796875 1819.0007629394531 -467.70050048828125Q1839.2007446289062 -494.600341796875 1867.3006896972656 -512.2001953125Q1895.400634765625 -529.800048828125 1929.2005615234375 -529.800048828125Z M2221.600830078125 -783.5999755859375V-93.0Q2221.600830078125 -51.0 2236.100799560547 -36.0Q2250.6007690429688 -21.0 2285.6007080078125 -21.0V0.0Q2268.8006591796875 -1.0 2235.600555419922 -2.5Q2202.4004516601562 -4.0 2168.4003295898438 -4.0Q2132.8002319335938 -4.0 2096.2001342773438 -2.5Q2059.6000366210938 -1.0 2041.5999755859375 0.0V-21.0Q2080.599853515625 -21.0 2097.0997924804688 -36.0Q2113.5997314453125 -51.0 2113.5997314453125 -93.0V-663.5999755859375Q2113.5997314453125 -708.5999755859375 2098.3997802734375 -730.0999755859375Q2083.1998291015625 -751.5999755859375 2041.5999755859375 -751.5999755859375V-772.5999755859375Q2073.5999755859375 -769.5999755859375 2103.5999755859375 -769.5999755859375Q2136.8002319335938 -769.5999755859375 2166.700439453125 -773.0999755859375Q2196.6006469726562 -776.5999755859375 2221.600830078125 -783.5999755859375ZM2542.4010009765625 -515.800048828125V-495.800048828125Q2515.2008666992188 -492.199951171875 2490.20068359375 -477.9997863769531Q2465.2005004882812 -463.79962158203125 2440.80029296875 -438.59942626953125L2321.0015869140625 -313.2008056640625L2333.6015014648438 -338.20062255859375L2514.6011962890625 -73.0Q2529.8010864257812 -51.60009765625 2544.001007080078 -38.300079345703125Q2558.200927734375 -25.00006103515625 2578.600830078125 -21.0V0.0Q2566.4007568359375 -1.0 2540.7006225585938 -2.5Q2515.00048828125 -4.0 2489.600341796875 -4.0Q2456.8002319335938 -4.0 2423.100128173828 -2.5Q2389.4000244140625 -1.0 2372.5999755859375 0.0V-21.0Q2392.5999755859375 -21.0 2400.2999572753906 -30.79998779296875Q2407.9999389648438 -40.5999755859375 2397.5999755859375 -55.0L2288.0003051757812 -226.6002197265625Q2271.4004516601562 -251.00006103515625 2257.2005310058594 -258.20001220703125Q2243.0006103515625 -265.39996337890625 2217.4008178710938 -266.199951171875V-285.99993896484375Q2245.8005981445312 -289.19989013671875 2264.2005004882812 -297.2998046875Q2282.6004028320312 -305.39971923828125 2299.0003051757812 -322.599609375L2373.600341796875 -398.59954833984375Q2406.2003784179688 -431.3995361328125 2406.3003845214844 -452.69964599609375Q2406.400390625 -473.999755859375 2385.5003662109375 -484.5998840332031Q2364.600341796875 -495.20001220703125 2331.0003051757812 -495.800048828125V-515.800048828125Q2357.600341796875 -514.800048828125 2390.3003540039062 -513.4000549316406Q2423.0003662109375 -512.0000610351562 2445.400390625 -512.0000610351562Q2463.200439453125 -512.0000610351562 2481.4005737304688 -512.5000610351562Q2499.6007080078125 -513.0000610351562 2515.7008361816406 -513.9000549316406Q2531.8009643554688 -514.800048828125 2542.4010009765625 -515.800048828125Z" fill="#0F1115"/>
  </g>
</svg>
